<svg width="40" height="40" viewBox="0 0 40 40" fill="none" xmlns="http://www.w3.org/2000/svg">
<rect width="40" height="40" fill="url(#paint0_linear_551_89)"/>
<g clip-path="url(#clip0_551_89)">
<path d="M13.677 7.99115C11.9826 8.00945 10.5856 8.40557 10.5856 8.40557C10.2346 8.47783 9.91341 8.49854 9.91341 8.49854C9.80633 8.50545 9.69926 8.51235 9.56641 8.50438C8.87242 8.51606 8.31234 8.29578 8.02486 8.19853C8.32345 10.7763 10.6839 11.2113 10.9753 11.2421C12.1106 10.7636 13.1447 10.639 13.8238 10.6531C14.3443 10.6444 14.6467 10.7159 14.6467 10.7159C17.5127 11.1679 18.914 13.1452 19.4193 14.0555C19.3734 11.9329 19.096 11.2229 19.096 11.2229C18.5612 9.47091 16.9038 8.65148 16.9038 8.65148C15.9829 8.22289 14.9172 7.9856 13.677 7.99115ZM20.144 17.0855L20.1643 24.9662C20.4231 24.8751 20.6928 24.8246 20.9842 24.8554C21.7853 24.8369 22.5922 25.1653 23.189 25.4411L23.1999 22.1486L23.3546 22.2379C24.1317 22.6178 24.9872 22.8025 25.8805 22.8028C29.0401 22.8058 31.5948 20.226 31.5978 17.0663C31.5859 13.9325 29.0468 11.3669 25.8871 11.3639C22.7275 11.3609 20.147 13.9258 20.144 17.0855ZM23.1966 17.0954C23.1921 15.6152 24.4119 14.3952 25.8921 14.3907C27.3723 14.3862 28.5666 15.5911 28.571 17.0713C28.5606 18.5773 27.3557 19.7715 25.8755 19.776C24.3953 19.7805 23.2011 18.5756 23.1966 17.0954ZM8.01111 17.0905C8.00812 20.2501 10.5879 22.8048 13.7218 22.793C14.6002 22.819 15.439 22.6161 16.2491 22.2247L16.4008 22.1405L16.4274 22.8087L19.4542 22.8037L19.454 17.0307C19.4273 13.9226 16.8623 11.3422 13.7284 11.354C10.5688 11.351 8.01411 13.9309 8.01111 17.0905ZM11.0379 17.0855C11.0334 15.6054 12.2532 14.3853 13.7185 14.4066C15.1987 14.4021 16.4079 15.5813 16.3975 17.0872C16.402 18.5674 15.197 19.7617 13.7168 19.7662C12.2366 19.7707 11.0424 18.5657 11.0379 17.0855ZM19.8537 25.9209L19.7833 25.9833L19.706 25.9387C19.4156 25.6679 19.0101 25.5369 18.5709 25.5239C17.2642 25.5254 15.7569 26.6482 15.7569 26.6482C15.5903 26.7582 15.0093 27.11 15.0093 27.11C13.736 27.8869 12.4867 28.2652 11.2722 28.2856C9.83272 28.2792 8.79785 27.7504 8.24575 27.3973C9.47931 29.7246 11.1941 30.9208 13.4604 30.9235C16.5685 30.8967 19.5831 28.6511 19.7091 28.552L19.7795 28.4896L19.8419 28.56C19.9708 28.6344 22.98 30.9216 26.0732 30.9206C28.3396 30.9233 30.0908 29.7351 31.2971 27.4077C30.7567 27.7485 29.7244 28.2866 28.2849 28.2801C27.0595 28.2599 25.8025 27.8778 24.5546 27.123C24.5546 27.123 23.9618 26.7807 23.8112 26.625C23.8112 26.625 22.3026 25.5479 20.9701 25.5346C20.5309 25.5215 20.1353 25.6711 19.8537 25.9209Z" fill="#DBD5F3"/>
</g>
<defs>
<linearGradient id="paint0_linear_551_89" x1="-4.53112" y1="8.47549" x2="39.7809" y2="33.3493" gradientUnits="userSpaceOnUse">
<stop stop-color="#722ABD"/>
<stop offset="1" stop-color="#4B2BC3"/>
</linearGradient>
<clipPath id="clip0_551_89">
<rect width="23.603" height="23" fill="white" transform="translate(8 8)"/>
</clipPath>
</defs>
</svg>
