<svg width="40" height="40" viewBox="0 0 40 40" fill="none" xmlns="http://www.w3.org/2000/svg">
<rect width="40" height="40" fill="#10030C"/>
<g clip-path="url(#clip0_542_38)">
<path d="M30.83 25.6477C29.9722 25.1968 28.922 25.4608 28.3666 26.258C28.2291 26.456 28.0807 26.6539 27.9267 26.8409C27.8992 26.8794 27.8662 26.9124 27.8333 26.9454C26.2002 28.6884 24.0063 29.9091 21.3285 30.0465C16.0279 30.327 12.3219 26.7584 12.058 21.7053C11.849 17.6858 14.3289 13.1055 19.6019 12.3358C22.4172 18.7965 29.7412 18.2467 29.7412 14.0513C29.7412 10.5212 25.6448 8.82769 21.7739 8.56376C21.4605 7.12314 21.411 6.01244 21.356 5.4021C21.279 4.62131 20.5752 3.99448 19.7944 3.99997C18.9146 4.01097 18.2218 4.74778 18.2713 5.62754C18.3043 6.19939 18.3538 6.77673 18.4308 7.35408C18.4857 7.78847 18.5572 8.22835 18.6452 8.66823C12.0305 9.74045 7.67013 15.294 8.02204 21.9142C8.39594 29.0403 14.0594 34.3739 21.5374 33.9835C25.205 33.791 28.4491 32.0975 30.5275 29.5022C30.8849 29.0458 31.2149 28.5784 31.5063 28.1C32.0176 27.2368 31.7152 26.1151 30.83 25.6477ZM26.5851 13.7049C26.4256 14.4087 24.4352 13.8918 23.0825 12.3577C24.2097 12.4402 26.7445 13.0011 26.5851 13.7049Z" fill="url(#paint0_linear_542_38)"/>
<path d="M26.5851 13.7049C26.4256 14.4087 24.4351 13.8918 23.0825 12.3578C21.8068 12.1763 20.6467 12.1763 19.5964 12.3303C22.4117 18.791 29.7357 18.2412 29.7357 14.0458L26.5851 13.7049Z" fill="url(#paint1_radial_542_38)"/>
<path d="M21.7684 8.56376C21.4549 7.12314 21.4055 6.01244 21.3505 5.4021C21.279 4.62131 20.5752 3.99448 19.7944 3.99997C18.9146 4.01097 18.2218 4.74778 18.2713 5.62754C18.3043 6.19939 18.3538 6.77673 18.4308 7.35408C18.4857 7.78846 18.5572 8.22835 18.6452 8.66823C19.6019 8.52527 20.6742 8.48678 21.7684 8.56376Z" fill="url(#paint2_radial_542_38)"/>
</g>
<defs>
<linearGradient id="paint0_linear_542_38" x1="7.29728" y1="10.3147" x2="27.9697" y2="26.7264" gradientUnits="userSpaceOnUse">
<stop offset="0.2036" stop-color="#7C1150"/>
<stop offset="0.5429" stop-color="#D81D69"/>
<stop offset="0.6781" stop-color="#DA2C6A"/>
<stop offset="0.7552" stop-color="#DB376A"/>
<stop offset="0.9502" stop-color="#FA8747"/>
</linearGradient>
<radialGradient id="paint1_radial_542_38" cx="0" cy="0" r="1" gradientUnits="userSpaceOnUse" gradientTransform="translate(19.9707 11.1636) scale(6.82679)">
<stop stop-color="#280033"/>
<stop offset="0.9502" stop-color="#280033" stop-opacity="0"/>
</radialGradient>
<radialGradient id="paint2_radial_542_38" cx="0" cy="0" r="1" gradientUnits="userSpaceOnUse" gradientTransform="translate(19.9707 11.1636) scale(6.82679 6.82679)">
<stop stop-color="#280033"/>
<stop offset="0.9502" stop-color="#280033" stop-opacity="0"/>
</radialGradient>
<clipPath id="clip0_542_38">
<rect width="23.7537" height="30" fill="white" transform="translate(8 4)"/>
</clipPath>
</defs>
</svg>
