<svg width="40" height="40" viewBox="0 0 40 40" fill="none" xmlns="http://www.w3.org/2000/svg">
<rect width="40" height="40" fill="#2E1F05"/>
<path d="M31.1285 24.0828C31.1397 23.9056 30.9567 23.7798 30.7911 23.8519L20.2061 28.2189C19.2497 28.5769 18.1775 28.4523 17.3319 27.8878L10.8826 23.5733C10.5638 23.3607 10.382 22.999 10.4031 22.6214L10.1815 17.1009C10.1927 16.9274 9.97475 16.8358 9.85271 16.9616L8.88885 17.9636C8.77304 18.0833 8.69708 18.2324 8.66719 18.3937L8.14292 24.5288C8.07443 24.9051 8.26372 25.2802 8.60991 25.4562L18.6992 30.5881C19.9234 31.2076 21.3954 31.1234 22.5385 30.3682L30.3502 25.4147C31.08 24.9516 31.0936 24.6217 31.1285 24.0828Z" fill="#FFC609"/>
<path d="M28.8733 14.3669L30.1064 23.2076C30.1451 23.4666 30.3881 23.6334 30.6275 23.5655L31.1026 23.4307C31.2924 23.3769 31.4278 23.1973 31.4338 22.9882L31.8702 14.2656C31.8896 13.6512 31.5535 13.0855 31.0216 12.8379L25.7217 10.3764C25.2587 10.175 25.0846 10.207 24.7667 10.2917L23.8551 10.5367C23.6871 10.5816 23.6569 10.8189 23.8056 10.9113L28.4949 13.7833C28.7367 13.9308 28.8346 14.0899 28.8733 14.3669Z" fill="#FFC609"/>
<path d="M25.9311 15.4328L25.4673 13.2799C25.4108 13.0247 25.357 12.8946 25.0899 12.7398L22.1839 11.0439C21.9895 10.9374 21.878 10.951 21.6511 11.0328L16.1625 13.0978C16.0045 13.1597 15.9305 13.2439 15.9117 13.4273L15.5494 17.431C15.5294 17.6403 15.7926 17.7245 15.9142 17.5536L18.5482 13.6986C18.5921 13.6329 18.6635 13.5908 18.7425 13.5796L22.6803 13.068C22.7844 13.0594 22.8345 13.0841 22.901 13.1386L25.5726 15.5468C25.7393 15.6942 25.9699 15.6248 25.9311 15.4328Z" fill="#F4B511"/>
<path d="M19.0743 18.3232C19.1649 18.4016 19.2904 18.4281 19.3376 18.284L19.8654 16.4689C19.9114 16.3122 19.9946 16.268 20.1175 16.268H21.8364C21.9904 16.268 22.0463 16.364 22.0798 16.4424L22.4698 17.3664C22.5182 17.4801 22.6722 17.494 22.7381 17.3891L23.5677 16.0758C23.7676 15.7598 23.7503 15.5222 23.554 15.3124L22.7356 14.4465C22.558 14.262 22.4375 14.1356 22.1196 14.1103L19.5412 13.9372C19.2792 13.9207 19.1264 14.0244 18.9948 14.2848L17.8261 16.7053C17.718 16.9455 17.7826 17.2299 17.9826 17.3992L19.0743 18.3232Z" fill="#E49B17"/>
<path d="M22.3336 8.39057L20.2607 8.04763C19.8925 7.98231 19.7299 7.95719 19.3911 8.15315L12.8327 11.9229C12.0013 12.4191 11.8141 12.7332 11.8412 13.414L12.2945 21.4435C12.2821 21.6784 12.3794 21.9045 12.5568 22.0552L17.2395 26.026C17.7962 26.4983 18.545 26.6629 19.2434 26.4682L26.143 24.5136C27.4374 24.1467 28.2836 22.8818 28.1469 21.5201L27.5372 15.4503C27.515 15.2204 27.2034 15.1777 27.1222 15.3937L26.0789 18.19L24.6786 21.9397C24.4877 22.4559 24.0295 22.819 23.4937 22.8843L19.1916 23.3918C18.4243 23.4797 18.2482 23.3768 17.6743 22.7876L14.2195 19.1434C13.765 18.6485 13.7626 18.3697 13.8648 17.6725L14.5508 12.9718C14.6149 12.6678 14.7122 12.5422 14.9499 12.4329L22.3902 8.92068C22.6378 8.81139 22.5984 8.44207 22.3336 8.39057Z" fill="#FFC10E"/>
<path d="M24.4408 17.8463L23.0179 21.5271C22.9125 21.7995 22.6541 21.9824 22.3649 21.9902L18.1477 22.0965C17.8611 22.1043 17.5976 21.937 17.478 21.6737L16.3071 19.0706C16.2338 18.9085 16.4151 18.7516 16.5629 18.8476L18.6824 20.2353C18.8148 20.3222 18.9716 20.365 19.1297 20.3547L21.2737 20.2211C21.4408 20.2107 21.5976 20.1433 21.7197 20.0278L24.2055 17.6854C24.3187 17.5791 24.4974 17.701 24.4408 17.8463Z" fill="#ECAA14"/>
</svg>
