<svg width="40" height="40" viewBox="0 0 40 40" fill="none" xmlns="http://www.w3.org/2000/svg">
<rect width="40" height="40" fill="black"/>
<path fill-rule="evenodd" clip-rule="evenodd" d="M31.8217 11.5171C31.591 11.1424 31.0924 11.2547 30.4896 11.5472C29.7085 11.8841 28.3023 13.4574 27.9601 14.3342C27.6551 15.5927 26.9407 16.7542 25.7799 18.0053C24.6118 18.9643 22.5361 18.5822 21.3381 17.8178C21.2637 17.8178 16.3456 13.9595 16.3456 13.9595C14.5823 12.5586 13.3544 11.9516 11.8739 11.7718C11.7996 11.727 11.7325 11.6521 11.7103 11.5996C11.4796 11.0825 11.4351 11.1277 11.2711 11C11.0779 11.1501 10.9365 11.2323 10.743 11.2921C10.6537 11.2921 10.6388 11.2921 10.5867 11.2624C10.4678 11.2099 10.3413 11.105 10.2149 11.0976C10.0658 11.1277 9.94698 11.4272 9.74615 11.727C9.74615 11.727 9.40361 12.0265 9.09123 12.2886C8.97207 12.3935 8.95714 12.5586 8.87547 12.6559C8.71181 12.8357 8.51829 13.1279 8.48843 13.1279C8.41407 13.3374 8.38451 13.5249 8.51829 13.6222C8.51829 13.8545 8.63745 13.9144 8.68195 13.9668C8.71913 14.0417 8.72675 14.0718 8.77886 14.1243C8.86815 14.1617 8.94251 14.1767 9.0318 14.1991C9.50783 14.6413 9.70135 14.6337 10.252 14.5588C11.2041 14.6263 11.1224 14.9485 11.1002 15.4355C11.0407 15.5104 11.0258 15.5027 10.9588 15.5402C10.5345 15.5402 10.0881 15.4429 9.66417 15.4429C8.73406 15.5254 7.93042 15.6902 8.00478 16.8214C8.06451 17.2636 8.86053 17.8779 9.27744 17.0463C9.33686 16.6639 9.65655 16.8364 9.93205 16.9263C11.5984 17.653 12.9305 18.0277 13.8158 17.2709C14.0837 16.934 14.2474 17.1737 14.5226 17.3759C15.862 18.9793 17.7816 20.0205 20.7353 20.058C21.7175 20.3053 22.469 20.7174 22.8411 21.6911C23.756 24.0513 24.9168 25.9542 26.6207 26.9506C26.4793 28.4417 26.539 29.6778 28.0345 30C28.4288 29.6778 27.8781 29.1908 28.3319 28.0971C28.2947 27.6101 27.8781 27.213 27.7367 26.2838C25.9957 24.8455 26.7323 24.2535 26.472 23.2945C26.4494 21.8937 26.1447 20.8224 25.5568 19.7584C25.4898 19.586 25.6013 19.4586 25.7576 19.3687C26.7399 18.627 27.2756 17.9003 27.5136 17.1961C27.8781 15.9449 28.4956 14.9636 29.3736 14.2593C30.1178 13.6597 30.8245 13.4725 31.6281 12.9404C32.1264 12.1164 32.052 11.8918 31.8217 11.5171Z" fill="white"/>
</svg>
